<svg width="20" height="20" viewBox="0 0 20 20" fill="none" xmlns="http://www.w3.org/2000/svg">
<path fill-rule="evenodd" clip-rule="evenodd" d="M16.3337 9.99996C16.3337 13.4978 13.4981 16.3333 10.0003 16.3333C6.50252 16.3333 3.66699 13.4978 3.66699 9.99996C3.66699 6.50216 6.50252 3.66663 10.0003 3.66663C13.4981 3.66663 16.3337 6.50216 16.3337 9.99996ZM18.3337 9.99996C18.3337 14.6023 14.6027 18.3333 10.0003 18.3333C5.39795 18.3333 1.66699 14.6023 1.66699 9.99996C1.66699 5.39759 5.39795 1.66663 10.0003 1.66663C14.6027 1.66663 18.3337 5.39759 18.3337 9.99996ZM10.0003 4.83329C10.5526 4.83329 11.0003 5.28101 11.0003 5.83329V8.99996H14.167C14.7193 8.99996 15.167 9.44767 15.167 9.99996C15.167 10.5522 14.7193 11 14.167 11H11.0003V14.1666C11.0003 14.7189 10.5526 15.1666 10.0003 15.1666C9.44804 15.1666 9.00033 14.7189 9.00033 14.1666V11H5.83366C5.28137 11 4.83366 10.5522 4.83366 9.99996C4.83366 9.44767 5.28137 8.99996 5.83366 8.99996H9.00033V5.83329C9.00033 5.28101 9.44804 4.83329 10.0003 4.83329Z" fill="#FCFCFD"/>
</svg>
