<svg width="20" height="20" viewBox="0 0 20 20" fill="none" xmlns="http://www.w3.org/2000/svg">
<path d="M15.833 7.50008C16.2932 7.50008 16.6663 7.87318 16.6663 8.33341L16.6663 17.5001C16.6663 17.9603 16.2932 18.3334 15.833 18.3334C15.3728 18.3334 14.9997 17.9603 14.9997 17.5001L14.9997 8.33341C14.9997 7.87318 15.3728 7.50008 15.833 7.50008Z" fill="#777E91"/>
<path d="M15.833 1.66675C16.2932 1.66675 16.6663 2.03984 16.6663 2.50008V5.00008C16.6663 5.46032 16.2932 5.83341 15.833 5.83341C15.3728 5.83341 14.9997 5.46032 14.9997 5.00008V2.50008C14.9997 2.03984 15.3728 1.66675 15.833 1.66675Z" fill="#777E91"/>
<path d="M10.833 2.50008C10.833 2.03984 10.4599 1.66675 9.99968 1.66675C9.53944 1.66675 9.16634 2.03984 9.16634 2.50008L9.16634 11.6667C9.16634 12.127 9.53944 12.5001 9.99968 12.5001C10.4599 12.5001 10.833 12.127 10.833 11.6667L10.833 2.50008Z" fill="#777E91"/>
<path d="M10.833 15.0001C10.833 14.5398 10.4599 14.1667 9.99968 14.1667C9.53944 14.1667 9.16634 14.5398 9.16634 15.0001V17.5001C9.16634 17.9603 9.53944 18.3334 9.99968 18.3334C10.4599 18.3334 10.833 17.9603 10.833 17.5001V15.0001Z" fill="#777E91"/>
<path d="M4.99968 2.50008C4.99968 2.03984 4.62658 1.66675 4.16634 1.66675C3.7061 1.66675 3.33301 2.03984 3.33301 2.50008L3.33301 8.33341C3.33301 8.79365 3.7061 9.16675 4.16634 9.16675C4.62658 9.16675 4.99967 8.79365 4.99967 8.33341L4.99968 2.50008Z" fill="#777E91"/>
<path d="M4.99967 11.6667C4.99967 11.2065 4.62658 10.8334 4.16634 10.8334C3.7061 10.8334 3.33301 11.2065 3.33301 11.6667L3.33301 17.5001C3.33301 17.9603 3.7061 18.3334 4.16634 18.3334C4.62658 18.3334 4.99967 17.9603 4.99967 17.5001L4.99967 11.6667Z" fill="#777E91"/>
<path fill-rule="evenodd" clip-rule="evenodd" d="M15.8337 9.16675C14.4529 9.16675 13.3337 8.04746 13.3337 6.66675C13.3337 5.28604 14.4529 4.16675 15.8337 4.16675C17.2144 4.16675 18.3337 5.28604 18.3337 6.66675C18.3337 8.04746 17.2144 9.16675 15.8337 9.16675ZM15.8337 7.50008C15.3734 7.50008 15.0003 7.12699 15.0003 6.66675C15.0003 6.20651 15.3734 5.83341 15.8337 5.83341C16.2939 5.83341 16.667 6.20651 16.667 6.66675C16.667 7.12699 16.2939 7.50008 15.8337 7.50008Z" fill="#777E91"/>
<path fill-rule="evenodd" clip-rule="evenodd" d="M7.50033 13.3334C7.50033 14.7141 8.61961 15.8334 10.0003 15.8334C11.381 15.8334 12.5003 14.7141 12.5003 13.3334C12.5003 11.9527 11.381 10.8334 10.0003 10.8334C8.61961 10.8334 7.50033 11.9527 7.50033 13.3334ZM9.16699 13.3334C9.16699 13.7937 9.54009 14.1667 10.0003 14.1667C10.4606 14.1667 10.8337 13.7937 10.8337 13.3334C10.8337 12.8732 10.4606 12.5001 10.0003 12.5001C9.54009 12.5001 9.16699 12.8732 9.16699 13.3334Z" fill="#777E91"/>
<path fill-rule="evenodd" clip-rule="evenodd" d="M1.66699 10.0001C1.66699 11.3808 2.78628 12.5001 4.16699 12.5001C5.5477 12.5001 6.66699 11.3808 6.66699 10.0001C6.66699 8.61937 5.5477 7.50008 4.16699 7.50008C2.78628 7.50008 1.66699 8.61937 1.66699 10.0001ZM3.33366 10.0001C3.33366 10.4603 3.70676 10.8334 4.16699 10.8334C4.62723 10.8334 5.00033 10.4603 5.00033 10.0001C5.00033 9.53984 4.62723 9.16675 4.16699 9.16675C3.70676 9.16675 3.33366 9.53984 3.33366 10.0001Z" fill="#777E91"/>
</svg>
