<svg width="24" height="24" viewBox="0 0 24 24" fill="none" xmlns="http://www.w3.org/2000/svg">
<path d="M22.7383 0.943604L13.4311 7.85618L15.1522 3.77786L22.7383 0.943604Z" fill="#E2761B" stroke="#E2761B" stroke-width="0.116924" stroke-linecap="round" stroke-linejoin="round"/>
<path d="M1.25229 0.943604L10.4846 7.92166L8.84767 3.77786L1.25229 0.943604Z" fill="#E4761B" stroke="#E4761B" stroke-width="0.116924" stroke-linecap="round" stroke-linejoin="round"/>
<path d="M19.3896 16.9669L16.9108 20.7646L22.2145 22.2238L23.7392 17.0511L19.3896 16.9669Z" fill="#E4761B" stroke="#E4761B" stroke-width="0.116924" stroke-linecap="round" stroke-linejoin="round"/>
<path d="M0.270172 17.0511L1.78551 22.2238L7.08921 20.7646L4.61041 16.9669L0.270172 17.0511Z" fill="#E4761B" stroke="#E4761B" stroke-width="0.116924" stroke-linecap="round" stroke-linejoin="round"/>
<path d="M6.78983 10.5502L5.3119 12.7858L10.5782 13.0196L10.3911 7.36047L6.78983 10.5502Z" fill="#E4761B" stroke="#E4761B" stroke-width="0.116924" stroke-linecap="round" stroke-linejoin="round"/>
<path d="M17.2007 10.5501L13.5527 7.29492L13.4311 13.0196L18.688 12.7857L17.2007 10.5501Z" fill="#E4761B" stroke="#E4761B" stroke-width="0.116924" stroke-linecap="round" stroke-linejoin="round"/>
<path d="M7.08919 20.7646L10.2508 19.2212L7.51947 17.0885L7.08919 20.7646Z" fill="#E4761B" stroke="#E4761B" stroke-width="0.116924" stroke-linecap="round" stroke-linejoin="round"/>
<path d="M13.7398 19.2212L16.9108 20.7646L16.4712 17.0885L13.7398 19.2212Z" fill="#E4761B" stroke="#E4761B" stroke-width="0.116924" stroke-linecap="round" stroke-linejoin="round"/>
<path d="M16.9108 20.7647L13.7398 19.2213L13.9924 21.2885L13.9643 22.1584L16.9108 20.7647Z" fill="#D7C1B3" stroke="#D7C1B3" stroke-width="0.116924" stroke-linecap="round" stroke-linejoin="round"/>
<path d="M7.08919 20.7647L10.0357 22.1584L10.017 21.2885L10.2508 19.2213L7.08919 20.7647Z" fill="#D7C1B3" stroke="#D7C1B3" stroke-width="0.116924" stroke-linecap="round" stroke-linejoin="round"/>
<path d="M10.0824 15.7229L7.4446 14.9465L9.30601 14.0953L10.0824 15.7229Z" fill="#233447" stroke="#233447" stroke-width="0.116924" stroke-linecap="round" stroke-linejoin="round"/>
<path d="M13.9081 15.7229L14.6845 14.0953L16.5553 14.9465L13.9081 15.7229Z" fill="#233447" stroke="#233447" stroke-width="0.116924" stroke-linecap="round" stroke-linejoin="round"/>
<path d="M7.08911 20.7646L7.53809 16.9669L4.61031 17.0511L7.08911 20.7646Z" fill="#CD6116" stroke="#CD6116" stroke-width="0.116924" stroke-linecap="round" stroke-linejoin="round"/>
<path d="M16.4619 16.9669L16.9108 20.7646L19.3896 17.0511L16.4619 16.9669Z" fill="#CD6116" stroke="#CD6116" stroke-width="0.116924" stroke-linecap="round" stroke-linejoin="round"/>
<path d="M18.688 12.7856L13.4311 13.0196L13.9175 15.7228L14.6939 14.0952L16.5646 14.9464L18.688 12.7856Z" fill="#CD6116" stroke="#CD6116" stroke-width="0.116924" stroke-linecap="round" stroke-linejoin="round"/>
<path d="M7.44397 14.9464L9.31478 14.0952L10.0817 15.7228L10.5775 13.0196L5.31126 12.7856L7.44397 14.9464Z" fill="#CD6116" stroke="#CD6116" stroke-width="0.116924" stroke-linecap="round" stroke-linejoin="round"/>
<path d="M5.3119 12.7856L7.51944 17.0885L7.44461 14.9464L5.3119 12.7856Z" fill="#E4751F" stroke="#E4751F" stroke-width="0.116924" stroke-linecap="round" stroke-linejoin="round"/>
<path d="M16.5647 14.9464L16.4712 17.0885L18.6881 12.7856L16.5647 14.9464Z" fill="#E4751F" stroke="#E4751F" stroke-width="0.116924" stroke-linecap="round" stroke-linejoin="round"/>
<path d="M10.5782 13.0197L10.0824 15.7229L10.6998 18.9126L10.8401 14.7127L10.5782 13.0197Z" fill="#E4751F" stroke="#E4751F" stroke-width="0.116924" stroke-linecap="round" stroke-linejoin="round"/>
<path d="M13.4311 13.0197L13.1786 14.7033L13.2908 18.9126L13.9175 15.7229L13.4311 13.0197Z" fill="#E4751F" stroke="#E4751F" stroke-width="0.116924" stroke-linecap="round" stroke-linejoin="round"/>
<path d="M13.9176 15.7229L13.2908 18.9126L13.7399 19.2213L16.4712 17.0886L16.5648 14.9465L13.9176 15.7229Z" fill="#F6851B" stroke="#F6851B" stroke-width="0.116924" stroke-linecap="round" stroke-linejoin="round"/>
<path d="M7.4446 14.9465L7.51943 17.0886L10.2508 19.2213L10.6998 18.9126L10.0824 15.7229L7.4446 14.9465Z" fill="#F6851B" stroke="#F6851B" stroke-width="0.116924" stroke-linecap="round" stroke-linejoin="round"/>
<path d="M13.9643 22.1584L13.9924 21.2885L13.7586 21.0827H10.2321L10.017 21.2885L10.0357 22.1584L7.08919 20.7646L8.11811 21.6065L10.204 23.0564H13.7866L15.8819 21.6065L16.9108 20.7646L13.9643 22.1584Z" fill="#C0AD9E" stroke="#C0AD9E" stroke-width="0.116924" stroke-linecap="round" stroke-linejoin="round"/>
<path d="M13.7398 19.2213L13.2908 18.9126H10.6998L10.2507 19.2213L10.0169 21.2885L10.232 21.0828H13.7585L13.9923 21.2885L13.7398 19.2213Z" fill="#161616" stroke="#161616" stroke-width="0.116924" stroke-linecap="round" stroke-linejoin="round"/>
<path d="M23.1312 8.30518L23.9263 4.48876L22.7383 0.943604L13.7398 7.62233L17.2008 10.5501L22.093 11.9813L23.178 10.7185L22.7103 10.3817L23.4586 9.69894L22.8786 9.2499L23.627 8.67934L23.1312 8.30518Z" fill="#763D16" stroke="#763D16" stroke-width="0.116924" stroke-linecap="round" stroke-linejoin="round"/>
<path d="M0.0736389 4.48876L0.868725 8.30518L0.363612 8.67934L1.11193 9.2499L0.541336 9.69894L1.28965 10.3817L0.821957 10.7185L1.89766 11.9813L6.78978 10.5501L10.2508 7.62233L1.25224 0.943604L0.0736389 4.48876Z" fill="#763D16" stroke="#763D16" stroke-width="0.116924" stroke-linecap="round" stroke-linejoin="round"/>
<path d="M22.093 11.9813L17.2008 10.5502L18.6881 12.7857L16.4712 17.0886L19.3896 17.0511H23.7392L22.093 11.9813Z" fill="#F6851B" stroke="#F6851B" stroke-width="0.116924" stroke-linecap="round" stroke-linejoin="round"/>
<path d="M6.78988 10.5502L1.89776 11.9813L0.270172 17.0511H4.61041L7.51949 17.0886L5.31196 12.7857L6.78988 10.5502Z" fill="#F6851B" stroke="#F6851B" stroke-width="0.116924" stroke-linecap="round" stroke-linejoin="round"/>
<path d="M13.4311 13.0196L13.7398 7.62231L15.1616 3.77783H8.84769L10.2508 7.62231L10.5782 13.0196L10.6904 14.722L10.6998 18.9125H13.2908L13.3095 14.722L13.4311 13.0196Z" fill="#F6851B" stroke="#F6851B" stroke-width="0.116924" stroke-linecap="round" stroke-linejoin="round"/>
</svg>
