<svg width="20" height="20" viewBox="0 0 20 20" fill="none" xmlns="http://www.w3.org/2000/svg">
<path fill-rule="evenodd" clip-rule="evenodd" d="M9.99984 3.33317C8.37298 3.33317 6.87331 3.46734 5.66959 3.62632C4.58627 3.76939 3.76939 4.58627 3.62632 5.66959C3.46734 6.87331 3.33317 8.37298 3.33317 9.99984C3.33317 11.6267 3.46734 13.1264 3.62632 14.3301C3.76939 15.4134 4.58627 16.2303 5.66959 16.3734C6.87331 16.5323 8.37298 16.6665 9.99984 16.6665C11.6267 16.6665 13.1264 16.5323 14.3301 16.3734C15.4134 16.2303 16.2303 15.4134 16.3734 14.3301C16.5323 13.1264 16.6665 11.6267 16.6665 9.99984C16.6665 8.37298 16.5323 6.87331 16.3734 5.66959C16.2303 4.58627 15.4134 3.76939 14.3301 3.62632C13.1264 3.46734 11.6267 3.33317 9.99984 3.33317ZM5.45137 1.974C3.62071 2.21577 2.21577 3.62071 1.974 5.45137C1.80778 6.70991 1.6665 8.28423 1.6665 9.99984C1.6665 11.7154 1.80778 13.2898 1.974 14.5483C2.21577 16.379 3.62071 17.7839 5.45137 18.0257C6.70991 18.1919 8.28423 18.3332 9.99984 18.3332C11.7154 18.3332 13.2898 18.1919 14.5483 18.0257C16.379 17.7839 17.7839 16.379 18.0257 14.5483C18.1919 13.2898 18.3332 11.7154 18.3332 9.99984C18.3332 8.28423 18.1919 6.70991 18.0257 5.45137C17.7839 3.62071 16.379 2.21577 14.5483 1.974C13.2898 1.80778 11.7154 1.6665 9.99984 1.6665C8.28423 1.6665 6.70991 1.80778 5.45137 1.974Z" fill="#777E91"/>
<path fill-rule="evenodd" clip-rule="evenodd" d="M10.0002 14.1668C10.4604 14.1668 10.8335 13.7937 10.8335 13.3335V10.8335H13.3335C13.7937 10.8335 14.1668 10.4604 14.1668 10.0002C14.1668 9.53993 13.7937 9.16683 13.3335 9.16683H10.8335V6.66683C10.8335 6.20659 10.4604 5.8335 10.0002 5.8335C9.53993 5.8335 9.16683 6.20659 9.16683 6.66683V9.16683H6.66683C6.20659 9.16683 5.8335 9.53993 5.8335 10.0002C5.8335 10.4604 6.20659 10.8335 6.66683 10.8335H9.16683V13.3335C9.16683 13.7937 9.53993 14.1668 10.0002 14.1668Z" fill="#777E91"/>
</svg>
