<svg width="22" height="30" viewBox="0 0 22 30" fill="none" xmlns="http://www.w3.org/2000/svg">
<path d="M17.0665 13.2667C16.1331 11.8 14.9998 12 14.4665 12.2C14.1331 12.3334 13.8665 12.5334 13.6665 12.7334C12.9998 11.9334 11.9331 11.6667 10.9998 12.0667C10.5998 12.2667 10.2665 12.6 10.0665 12.9334C9.93315 12.8667 9.86648 12.8 9.73314 12.8C9.19981 12.6 8.59981 12.6 8.06648 12.8667C7.79981 13 7.53315 13.2 7.39981 13.4L4.99982 8.40003C4.73315 7.86669 4.33315 7.46669 3.79982 7.26669C3.26649 7.06669 2.66649 7.06669 2.13315 7.33336C1.59982 7.60003 1.19982 8.00003 0.999821 8.53336C0.799821 9.0667 0.799821 9.6667 1.06649 10.2L5.86648 20.4667C5.39982 20.0667 4.93315 19.6667 4.33315 19.6C2.33315 19.2 1.06649 21.1334 0.999821 21.2L0.733154 21.6L1.06649 22C1.19982 22.1334 2.19982 23.3334 4.39982 25.4C6.39982 27.2667 8.06648 27.9334 9.26648 28.4C10.3998 28.8667 10.9998 29.0667 11.3331 29.8667L12.5331 29.3334C11.9331 28.0667 10.9331 27.6667 9.73314 27.2C8.53315 26.7334 7.06648 26.2 5.26648 24.4667C3.93315 23.2 2.93315 22.2 2.39982 21.6C2.73315 21.2667 3.33315 20.8 4.06648 20.9334C4.46648 21 4.93315 21.4667 5.39982 21.9334C5.86648 22.4 6.33315 22.8667 6.86648 23C7.19981 23.0667 7.53315 23 7.66648 22.9334L8.39981 22.7334L2.26649 9.6667C2.19982 9.4667 2.13315 9.2667 2.26649 9.00003C2.33315 8.80003 2.46649 8.60003 2.73315 8.53336C2.93315 8.4667 3.13315 8.40003 3.39982 8.53336C3.59982 8.60003 3.79982 8.73336 3.86648 9.00003L8.33315 18.6L9.53315 18.0667L8.26648 15.3334C8.06648 14.9334 8.26648 14.4 8.66648 14.2C8.86648 14.1334 9.06648 14.0667 9.33315 14.2C9.53315 14.2667 9.73315 14.4 9.79981 14.6667L9.99981 15.1334L10.5331 16.2667L11.0665 17.4L12.2665 16.8667L12.0665 16.4L11.6665 15.4667L11.2665 14.5334C11.0665 14.1334 11.2665 13.6 11.6665 13.4C12.0665 13.2 12.5998 13.4 12.7998 13.8L14.0665 16.5334L15.2665 16L14.3331 14.0667C14.4665 13.8667 14.6665 13.6667 14.9998 13.5334C15.1331 13.4667 15.5331 13.3334 16.0665 14.1334C18.3331 17.6 18.9331 21.6 19.2665 23.9334C19.3998 24.9334 19.5331 25.5334 19.6665 25.9334L20.8665 25.4C20.7998 25.2 20.6665 24.4667 20.5331 23.7334C20.0665 21.1334 19.4665 16.9334 17.0665 13.2667ZM19.7998 4.60003C19.3998 4.60003 18.9998 4.73336 18.6665 5.00003C18.5998 5.00003 18.5998 4.93336 18.5331 4.93336C13.1331 2.66669 8.33315 2.33336 5.86648 2.33336L6.66648 1.53336C6.93315 1.26669 6.93315 0.866691 6.66648 0.600025C6.39982 0.333358 5.99982 0.333358 5.73315 0.600025L3.73315 2.60003C3.66649 2.60003 3.66649 2.60003 3.66649 2.66669C3.66649 2.73336 3.59982 2.73336 3.59982 2.80003V3.13336C3.59982 3.20003 3.59982 3.20003 3.66649 3.26669C3.66649 3.33336 3.73315 3.33336 3.73315 3.40003C3.73315 3.40003 3.73315 3.46669 3.79982 3.46669L5.79982 5.46669C5.93315 5.60003 6.13315 5.66669 6.26648 5.66669C6.39982 5.66669 6.59982 5.60003 6.73315 5.46669C6.99981 5.20003 6.99981 4.80003 6.73315 4.53336L5.79982 3.60003C8.06648 3.60003 12.7998 3.93336 17.9331 6.06669C17.9331 6.20003 17.8665 6.33336 17.8665 6.46669C17.8665 7.53336 18.7331 8.40003 19.7998 8.40003C20.8665 8.40003 21.7331 7.53336 21.7331 6.46669C21.7331 5.40003 20.8665 4.60003 19.7998 4.60003ZM19.7998 7.06669C19.4665 7.06669 19.1998 6.80003 19.1998 6.46669C19.1998 6.13336 19.4665 5.86669 19.7998 5.86669C20.1331 5.86669 20.3998 6.13336 20.3998 6.46669C20.3998 6.80003 20.1331 7.06669 19.7998 7.06669Z" fill="#5D5FEF"/>
</svg>
