<?xml version="1.0" encoding="iso-8859-1"?>
<!-- Generator: Adobe Illustrator 16.0.0, SVG Export Plug-In . SVG Version: 6.00 Build 0)  -->
<!DOCTYPE svg PUBLIC "-//W3C//DTD SVG 1.1//EN" "http://www.w3.org/Graphics/SVG/1.1/DTD/svg11.dtd">
<svg version="1.1" id="Capa_1" xmlns="http://www.w3.org/2000/svg" xmlns:xlink="http://www.w3.org/1999/xlink" x="0px" y="0px"
	 width="592.875px" height="592.875px" viewBox="0 0 592.875 592.875" style="fill: #5d5fef"
	 xml:space="preserve">
<g>
	<g>
		<path d="M535.5,267.75c-11.475,0-21.037,3.825-28.688,9.562l0,0c0-26.775-21.037-47.812-47.812-47.812
			c-11.475,0-21.037,3.825-28.688,9.562V105.188c0-24.862-21.037-47.812-47.812-47.812c-21.037,0-38.25,13.388-43.987,30.6
			C330.862,80.325,319.388,76.5,306,76.5c-24.862,0-47.812,22.95-47.812,47.812v170.213c-38.25-34.425-80.325-61.2-107.1-34.425
			c-38.25,38.25,42.075,112.837,103.275,225.675c43.987,78.412,105.188,107.1,166.388,107.1
			c89.888,0,162.562-72.675,162.562-162.562v-114.75C583.312,290.7,562.275,267.75,535.5,267.75z M564.188,359.55v72.675
			c0,78.413-65.025,143.438-143.438,143.438c-72.675,0-114.75-40.162-149.175-95.625c-74.588-126.225-128.138-183.6-107.1-204.637
			s72.675,24.863,112.837,66.938V124.312c0-15.3,13.388-28.688,28.688-28.688c17.213,0,28.688,13.388,28.688,28.688v200.812h19.125
			V105.188c0-15.3,13.388-28.688,28.688-28.688c17.213,0,28.688,13.388,28.688,28.688V306h19.125v-28.688
			c0-15.3,13.388-28.688,28.688-28.688s28.688,13.388,28.688,28.688v47.812h19.125v-9.562c0-15.3,13.388-28.688,28.688-28.688
			s28.688,13.388,28.688,28.688V359.55z"/>
		<path d="M145.35,181.688L131.962,168.3l-42.075,42.075c-1.913-9.562-3.825-19.125-3.825-28.688
			c0-57.375,47.812-105.188,105.188-105.188c9.562,0,19.125,1.913,26.775,3.825L177.862,122.4l13.388,13.388l47.812-47.812l0,0l0,0
			l5.737-5.738l13.388-13.387L191.25,0l-13.388,13.388l49.725,49.725c-11.475-3.825-22.95-5.737-36.337-5.737
			c-68.85,0-124.312,55.462-124.312,124.312c0,13.388,1.913,24.862,5.737,36.337L22.95,168.3L9.562,181.688l53.55,53.55
			L76.5,248.625L95.625,229.5h1.913l0,0L145.35,181.688z"/>
	</g>
</g>
<g>
</g>
<g>
</g>
<g>
</g>
<g>
</g>
<g>
</g>
<g>
</g>
<g>
</g>
<g>
</g>
<g>
</g>
<g>
</g>
<g>
</g>
<g>
</g>
<g>
</g>
<g>
</g>
<g>
</g>
</svg>
