<?xml version="1.0" standalone="no"?>
<!DOCTYPE svg PUBLIC "-//W3C//DTD SVG 20010904//EN"
 "http://www.w3.org/TR/2001/REC-SVG-20010904/DTD/svg10.dtd">
<svg version="1.0" xmlns="http://www.w3.org/2000/svg"
 width="96.000000pt" height="96.000000pt" viewBox="0 0 96.000000 96.000000"
 preserveAspectRatio="xMidYMid meet">
<metadata>
Created by potrace 1.14, written by Peter Selinger 2001-2017
</metadata>
<g transform="translate(0.000000,96.000000) scale(0.100000,-0.100000)"
fill="#000000" stroke="none">
<path d="M103 824 c-59 -29 -63 -53 -63 -344 0 -293 4 -315 65 -344 49 -24
701 -24 750 0 51 24 83 106 52 132 -7 6 -63 12 -126 13 -131 2 -174 18 -223
85 -76 105 -32 247 95 302 16 7 73 12 135 12 136 0 154 15 116 95 -30 63 -43
65 -426 65 -291 0 -348 -3 -375 -16z"/>
<path d="M680 592 c-48 -21 -80 -65 -80 -108 0 -43 29 -91 65 -108 41 -20 224
-23 243 -4 16 16 16 200 0 216 -13 13 -201 16 -228 4z m70 -87 c26 -32 -13
-81 -47 -59 -23 14 -28 41 -13 59 16 19 44 19 60 0z"/>
</g>
</svg>
