<svg width="20" height="32" viewBox="0 0 20 32" fill="none" xmlns="http://www.w3.org/2000/svg">
<path d="M10.0484 0.173389V0.189153C10.0641 0.267971 10.0641 0.362552 10.0641 0.457133V11.8227C10.0484 11.8857 10.0011 11.9015 9.95379 11.933C9.62276 12.0906 9.30749 12.2325 8.97645 12.3744C8.51931 12.5793 8.0464 12.8 7.58926 13.0049L5.93409 13.7616C5.47694 13.9665 5.0198 14.1714 4.57842 14.3763C4.04246 14.6286 3.49074 14.865 2.95478 15.1172C2.49763 15.3222 2.04049 15.5428 1.56759 15.7478C1.18926 15.9212 0.810936 16.0788 0.448374 16.2522C0.416847 16.268 0.38532 16.2837 0.353793 16.2837C0.338029 16.2837 0.338029 16.2837 0.322266 16.268L0.747881 15.5586C1.56759 14.2029 2.37153 12.863 3.19123 11.5074C4.05823 10.0571 4.94098 8.60689 5.80798 7.15664C6.61192 5.81674 7.43162 4.47684 8.23557 3.13694C8.81882 2.1596 9.41783 1.18226 10.0011 0.204916C10.0168 0.173389 10.0326 0.157626 10.0326 0.126099H10.0484C10.0326 0.141862 10.0484 0.157626 10.0484 0.173389Z" fill="#8A92B2"/>
<path d="M19.726 16.268L19.7417 16.2837L17.4245 17.6552L10.1417 21.9586C10.1102 21.9744 10.0787 21.9901 10.0629 22.0059C10.0156 22.0059 10.0156 21.9586 10.0156 21.9428V21.801V12.0591C10.0156 12.0118 10.0156 11.9488 10.0314 11.9015C10.0472 11.8384 10.0944 11.8542 10.1417 11.8699C10.3467 11.9645 10.5673 12.0591 10.7723 12.1537C11.3871 12.4374 12.0018 12.7212 12.6166 12.9891C13.1526 13.2256 13.6728 13.4778 14.2087 13.7143C14.7447 13.9507 15.2807 14.2029 15.8166 14.4394C16.2738 14.6443 16.7467 14.865 17.2038 15.0699C17.6609 15.2749 18.1339 15.4956 18.591 15.7005C18.9536 15.8581 19.3161 16.0315 19.6787 16.1891C19.6787 16.2364 19.6944 16.2522 19.726 16.268Z" fill="#454A75"/>
<path d="M10.0474 31.7951C10.0474 31.8108 10.0316 31.8266 10.0316 31.8424H10.0159C10.0159 31.8108 9.98434 31.7951 9.96858 31.7636C8.99124 30.3921 8.0139 29.0049 7.03656 27.6335C6.04346 26.2305 5.03459 24.8118 4.04149 23.4089C3.07991 22.0532 2.10257 20.6818 1.14099 19.3261C0.888777 18.9635 0.63656 18.6167 0.384343 18.2542C0.36858 18.2227 0.352816 18.2069 0.321289 18.1596C0.36858 18.1596 0.400107 18.1911 0.41587 18.2069C1.7873 19.0108 3.14296 19.8148 4.51439 20.6187C6.09075 21.5488 7.65134 22.4788 9.22769 23.4089L10.0316 23.8818C10.0632 23.9133 10.0632 23.9448 10.0632 23.9764V31.5744C10.0632 31.6532 10.0632 31.732 10.0474 31.7951Z" fill="#8A92B2"/>
<path d="M0.305664 16.2996V16.2838C0.810098 16.0631 1.29877 15.8267 1.8032 15.606C2.44951 15.3065 3.09581 15.0227 3.74212 14.7232C4.23079 14.5025 4.73522 14.2661 5.22389 14.0454C5.94901 13.7143 6.65837 13.3991 7.3835 13.068C7.87217 12.8474 8.36084 12.6267 8.86527 12.3902C9.21207 12.2326 9.57463 12.0749 9.92143 11.9173C9.95295 11.9015 10.0002 11.8858 10.016 11.8542C10.0318 11.8542 10.0318 11.87 10.016 11.8858V21.8956C10.016 21.9429 10.0002 21.9902 10.0318 22.0217C10.0002 22.069 9.96872 22.0217 9.95295 22.006C9.81108 21.9272 9.66921 21.8483 9.52734 21.7538C6.48497 19.9567 3.42685 18.1439 0.384482 16.3469C0.368718 16.3311 0.337191 16.3153 0.305664 16.2996Z" fill="#62688F"/>
<path d="M19.6943 18.1596H19.7101C19.7101 18.1911 19.6785 18.2227 19.6628 18.2542C16.7623 22.3369 13.8618 26.4355 10.9613 30.5182C10.6618 30.9438 10.3465 31.3695 10.047 31.7951C10.0313 31.7793 10.0312 31.7636 10.0312 31.7478V31.6532V24.0079V23.866C10.6933 23.4719 11.3396 23.0936 12.0017 22.6995C14.5554 21.1862 17.1091 19.6887 19.647 18.1754C19.6628 18.1911 19.6785 18.1754 19.6943 18.1596Z" fill="#62688F"/>
<path d="M10.0315 11.8858V11.8542V11.7597V0.315317C10.0315 0.268027 10.0158 0.2365 10.0473 0.189209C13.2473 5.50152 16.4473 10.7981 19.6315 16.1104C19.6631 16.1577 19.7103 16.2207 19.7261 16.2838C19.5054 16.205 19.3005 16.0946 19.0956 16C18.8434 15.8897 18.5754 15.7636 18.3232 15.6532C18.1655 15.5744 17.9921 15.5114 17.8345 15.4326C17.5665 15.3064 17.2985 15.1961 17.0305 15.07C16.8729 15.0069 16.7153 14.9281 16.5576 14.8493L15.5172 14.3764C15.3438 14.2976 15.1704 14.2188 14.9813 14.1399L14.2246 13.8089C14.067 13.7459 13.9094 13.667 13.7517 13.5882L12.7113 13.1153C12.5379 13.0365 12.3645 12.9577 12.1754 12.8789L11.4187 12.5478C11.2453 12.469 11.0877 12.3902 10.9143 12.3114C10.6148 12.1695 10.3153 12.0276 10 11.9015C10.0473 11.8858 10.0315 11.8858 10.0315 11.8858Z" fill="#62688F"/>
</svg>
